<svg width="45" height="51" viewBox="0 0 45 51" fill="none" xmlns="http://www.w3.org/2000/svg">
<path d="M43.5735 2.60239V10.8964C43.5735 11.4674 43.2685 11.9964 42.7735 12.2814L22.5625 23.9504C21.4965 24.5664 21.4965 26.1054 22.5625 26.7214L42.7745 38.3904C43.2695 38.6764 43.5745 39.2044 43.5745 39.7754V48.0694C43.5745 49.3004 42.2415 50.0704 41.1755 49.4544L1.7995 26.7204C0.7335 26.1044 0.7335 24.5654 1.7995 23.9494L41.1745 1.21639C42.2405 0.601386 43.5735 1.37039 43.5735 2.60239Z"/>
<path d="M42.7735 38.3904L40.3975 37.0184C40.3845 37.0614 40.3745 37.1084 40.3655 37.1544L40.7745 37.3904C41.2695 37.6764 41.5745 38.2044 41.5745 38.7754V47.0694C41.5745 48.0774 40.6805 48.7624 39.7715 48.6444L41.1755 49.4544C42.2415 50.0704 43.5745 49.3004 43.5745 48.0694V39.7754C43.5735 39.2034 43.2685 38.6754 42.7735 38.3904Z"/>
<path d="M22.5625 23.9504L42.7745 12.2814C43.2695 11.9954 43.5745 11.4674 43.5745 10.8964V2.60238C43.5745 1.48738 42.4825 0.762383 41.4835 1.09038C41.5375 1.25038 41.5745 1.41838 41.5745 1.60238V9.89639C41.5745 10.4674 41.2695 10.9964 40.7745 11.2814L20.5625 22.9504C20.4845 23.0024 19.8175 23.4664 19.7625 24.3354C19.7055 25.2464 20.3715 25.8024 20.4355 25.8534C21.0745 26.2964 21.7125 26.7384 22.3515 27.1814C22.3195 27.0694 22.2815 26.8694 22.3705 26.6714C22.3815 26.6464 22.3945 26.6224 22.4075 26.6014C21.5115 25.9284 21.5545 24.5314 22.5625 23.9504Z"/>
<path d="M43.5735 2.60239V10.8964C43.5735 11.4674 43.2685 11.9964 42.7735 12.2814L22.5625 23.9504C21.4965 24.5664 21.4965 26.1054 22.5625 26.7214L42.7745 38.3904C43.2695 38.6764 43.5745 39.2044 43.5745 39.7754V48.0694C43.5745 49.3004 42.2415 50.0704 41.1755 49.4544L1.7995 26.7204C0.7335 26.1044 0.7335 24.5654 1.7995 23.9494L41.1745 1.21639C42.2405 0.601386 43.5735 1.37039 43.5735 2.60239Z"/>
</svg>
