<svg width="45" height="51" viewBox="0 0 45 51" fill="none" xmlns="http://www.w3.org/2000/svg">
<path d="M1.001 48.0688V39.7748C1.001 39.2038 1.306 38.6748 1.801 38.3898L22.012 26.7208C23.078 26.1048 23.078 24.5658 22.012 23.9498L1.8 12.2808C1.305 11.9948 1 11.4668 1 10.8958V2.60182C1 1.37082 2.333 0.600816 3.399 1.21682L42.775 23.9508C43.841 24.5668 43.841 26.1058 42.775 26.7218L3.4 49.4548C2.334 50.0698 1.001 49.3008 1.001 48.0688Z"/>
<path d="M1.801 12.2808L4.09973 13.6082C4.13921 13.631 4.18909 13.6114 4.19875 13.5669V13.5669C4.20515 13.5373 4.19141 13.5067 4.16522 13.4916L3.8 13.2808C3.305 12.9948 3 12.4668 3 11.8958L3 3.60181C3 3.20778 3.13661 2.8631 3.35733 2.59645C3.583 2.32383 3.70555 1.39367 3.399 1.21681V1.21681C2.333 0.600812 1 1.37081 1 2.60181L1 10.8958C1.001 11.4678 1.306 11.9958 1.801 12.2808Z"/>
<path d="M22.012 26.7208L1.8 38.3898C1.305 38.6758 1 39.2038 1 39.7748V48.0688C1 48.9934 1.75084 49.6498 2.57689 49.66C2.86468 49.6636 3 49.3566 3 49.0688V49.0688V40.7748C3 40.2038 3.305 39.6748 3.8 39.3898L24.012 27.7208C24.09 27.6688 24.757 27.2048 24.812 26.3358C24.869 25.4248 24.203 24.8688 24.139 24.8178C23.6428 24.4738 23.1472 24.1304 22.6513 23.7867C22.5075 23.6871 22.2757 23.8403 22.204 23.9998V23.9998V23.9998C22.1859 24.0409 22.1948 24.0904 22.2293 24.119C23.0604 24.8088 22.996 26.1536 22.012 26.7208Z"/>
<path d="M1.001 48.0688V39.7748C1.001 39.2038 1.306 38.6748 1.801 38.3898L22.012 26.7208C23.078 26.1048 23.078 24.5658 22.012 23.9498L1.8 12.2808C1.305 11.9948 1 11.4668 1 10.8958V2.60182C1 1.37082 2.333 0.600816 3.399 1.21682L42.775 23.9508C43.841 24.5668 43.841 26.1058 42.775 26.7218L3.4 49.4548C2.334 50.0698 1.001 49.3008 1.001 48.0688Z"/>
</svg>
